<mxfile host="Electron" modified="2023-08-21T01:01:49.927Z" agent="Mozilla/5.0 (Windows NT 10.0; Win64; x64) AppleWebKit/537.36 (KHTML, like Gecko) draw.io/21.6.5 Chrome/114.0.5735.243 Electron/25.3.1 Safari/537.36" etag="LIZ_rQ_r3FgJvGxmxzWy" version="21.6.5" type="device">
  <diagram id="R2lEEEUBdFMjLlhIrx00" name="Page-1">
    <mxGraphModel dx="1100" dy="655" grid="1" gridSize="10" guides="1" tooltips="1" connect="1" arrows="1" fold="1" page="1" pageScale="1" pageWidth="850" pageHeight="1100" math="0" shadow="0" extFonts="Permanent Marker^https://fonts.googleapis.com/css?family=Permanent+Marker">
      <root>
        <mxCell id="0" />
        <mxCell id="1" parent="0" />
        <mxCell id="5n9DnabvHOIzad0tQ0xk-1" value="&lt;b&gt;JESÚS ALBERTO DOMÍNGUEZ CHARRIS&lt;/b&gt;" style="text;html=1;align=center;verticalAlign=middle;resizable=0;points=[];autosize=1;strokeColor=none;fillColor=none;" parent="1" vertex="1">
          <mxGeometry x="570" y="30" width="260" height="30" as="geometry" />
        </mxCell>
        <mxCell id="WU8Xq_cLeQHDQ70CtlRt-22" style="edgeStyle=orthogonalEdgeStyle;rounded=0;orthogonalLoop=1;jettySize=auto;html=1;exitX=0.5;exitY=1;exitDx=0;exitDy=0;entryX=0.5;entryY=0;entryDx=0;entryDy=0;endArrow=none;endFill=0;" edge="1" parent="1" source="WU8Xq_cLeQHDQ70CtlRt-1" target="WU8Xq_cLeQHDQ70CtlRt-5">
          <mxGeometry relative="1" as="geometry" />
        </mxCell>
        <mxCell id="WU8Xq_cLeQHDQ70CtlRt-1" value="Productos" style="whiteSpace=wrap;html=1;align=center;" vertex="1" parent="1">
          <mxGeometry x="200" y="220" width="100" height="40" as="geometry" />
        </mxCell>
        <mxCell id="WU8Xq_cLeQHDQ70CtlRt-20" style="edgeStyle=orthogonalEdgeStyle;rounded=0;orthogonalLoop=1;jettySize=auto;html=1;exitX=0.5;exitY=1;exitDx=0;exitDy=0;entryX=0.5;entryY=0;entryDx=0;entryDy=0;endArrow=none;endFill=0;" edge="1" parent="1" source="WU8Xq_cLeQHDQ70CtlRt-2" target="WU8Xq_cLeQHDQ70CtlRt-1">
          <mxGeometry relative="1" as="geometry" />
        </mxCell>
        <mxCell id="WU8Xq_cLeQHDQ70CtlRt-2" value="Nombre" style="ellipse;whiteSpace=wrap;html=1;align=center;" vertex="1" parent="1">
          <mxGeometry x="200" y="130" width="100" height="40" as="geometry" />
        </mxCell>
        <mxCell id="WU8Xq_cLeQHDQ70CtlRt-19" style="edgeStyle=orthogonalEdgeStyle;rounded=0;orthogonalLoop=1;jettySize=auto;html=1;exitX=0.5;exitY=1;exitDx=0;exitDy=0;entryX=0.5;entryY=0;entryDx=0;entryDy=0;endArrow=none;endFill=0;" edge="1" parent="1" source="WU8Xq_cLeQHDQ70CtlRt-3" target="WU8Xq_cLeQHDQ70CtlRt-1">
          <mxGeometry relative="1" as="geometry" />
        </mxCell>
        <mxCell id="WU8Xq_cLeQHDQ70CtlRt-3" value="ID" style="ellipse;whiteSpace=wrap;html=1;align=center;fontStyle=4;" vertex="1" parent="1">
          <mxGeometry x="80" y="130" width="100" height="40" as="geometry" />
        </mxCell>
        <mxCell id="WU8Xq_cLeQHDQ70CtlRt-21" style="edgeStyle=orthogonalEdgeStyle;rounded=0;orthogonalLoop=1;jettySize=auto;html=1;exitX=0.5;exitY=1;exitDx=0;exitDy=0;entryX=0.5;entryY=0;entryDx=0;entryDy=0;endArrow=none;endFill=0;" edge="1" parent="1" source="WU8Xq_cLeQHDQ70CtlRt-4" target="WU8Xq_cLeQHDQ70CtlRt-1">
          <mxGeometry relative="1" as="geometry" />
        </mxCell>
        <mxCell id="WU8Xq_cLeQHDQ70CtlRt-4" value="Existencia" style="ellipse;whiteSpace=wrap;html=1;align=center;" vertex="1" parent="1">
          <mxGeometry x="320" y="130" width="100" height="40" as="geometry" />
        </mxCell>
        <mxCell id="WU8Xq_cLeQHDQ70CtlRt-23" style="edgeStyle=orthogonalEdgeStyle;rounded=0;orthogonalLoop=1;jettySize=auto;html=1;exitX=0.5;exitY=1;exitDx=0;exitDy=0;entryX=0.5;entryY=0;entryDx=0;entryDy=0;endArrow=none;endFill=0;" edge="1" parent="1" source="WU8Xq_cLeQHDQ70CtlRt-5" target="WU8Xq_cLeQHDQ70CtlRt-6">
          <mxGeometry relative="1" as="geometry" />
        </mxCell>
        <mxCell id="WU8Xq_cLeQHDQ70CtlRt-5" value="Contiene" style="shape=rhombus;perimeter=rhombusPerimeter;whiteSpace=wrap;html=1;align=center;" vertex="1" parent="1">
          <mxGeometry x="190" y="310" width="120" height="60" as="geometry" />
        </mxCell>
        <mxCell id="WU8Xq_cLeQHDQ70CtlRt-24" style="edgeStyle=orthogonalEdgeStyle;rounded=0;orthogonalLoop=1;jettySize=auto;html=1;exitX=0.5;exitY=1;exitDx=0;exitDy=0;entryX=0.5;entryY=0;entryDx=0;entryDy=0;endArrow=none;endFill=0;" edge="1" parent="1" source="WU8Xq_cLeQHDQ70CtlRt-6" target="WU8Xq_cLeQHDQ70CtlRt-8">
          <mxGeometry relative="1" as="geometry" />
        </mxCell>
        <mxCell id="WU8Xq_cLeQHDQ70CtlRt-25" style="edgeStyle=orthogonalEdgeStyle;rounded=0;orthogonalLoop=1;jettySize=auto;html=1;exitX=0.5;exitY=1;exitDx=0;exitDy=0;entryX=0.5;entryY=0;entryDx=0;entryDy=0;endArrow=none;endFill=0;" edge="1" parent="1" source="WU8Xq_cLeQHDQ70CtlRt-6" target="WU8Xq_cLeQHDQ70CtlRt-7">
          <mxGeometry relative="1" as="geometry" />
        </mxCell>
        <mxCell id="WU8Xq_cLeQHDQ70CtlRt-26" style="edgeStyle=orthogonalEdgeStyle;rounded=0;orthogonalLoop=1;jettySize=auto;html=1;exitX=0.5;exitY=1;exitDx=0;exitDy=0;entryX=0.5;entryY=0;entryDx=0;entryDy=0;endArrow=none;endFill=0;" edge="1" parent="1" source="WU8Xq_cLeQHDQ70CtlRt-6" target="WU8Xq_cLeQHDQ70CtlRt-9">
          <mxGeometry relative="1" as="geometry" />
        </mxCell>
        <mxCell id="WU8Xq_cLeQHDQ70CtlRt-27" style="edgeStyle=orthogonalEdgeStyle;rounded=0;orthogonalLoop=1;jettySize=auto;html=1;exitX=1;exitY=0.5;exitDx=0;exitDy=0;entryX=0;entryY=0.5;entryDx=0;entryDy=0;endArrow=none;endFill=0;" edge="1" parent="1" source="WU8Xq_cLeQHDQ70CtlRt-6" target="WU8Xq_cLeQHDQ70CtlRt-10">
          <mxGeometry relative="1" as="geometry" />
        </mxCell>
        <mxCell id="WU8Xq_cLeQHDQ70CtlRt-6" value="Componente" style="whiteSpace=wrap;html=1;align=center;" vertex="1" parent="1">
          <mxGeometry x="200" y="420" width="100" height="40" as="geometry" />
        </mxCell>
        <mxCell id="WU8Xq_cLeQHDQ70CtlRt-7" value="Nombre" style="ellipse;whiteSpace=wrap;html=1;align=center;" vertex="1" parent="1">
          <mxGeometry x="200" y="510" width="100" height="40" as="geometry" />
        </mxCell>
        <mxCell id="WU8Xq_cLeQHDQ70CtlRt-8" value="ID" style="ellipse;whiteSpace=wrap;html=1;align=center;fontStyle=4;" vertex="1" parent="1">
          <mxGeometry x="80" y="510" width="100" height="40" as="geometry" />
        </mxCell>
        <mxCell id="WU8Xq_cLeQHDQ70CtlRt-9" value="Descripción" style="ellipse;whiteSpace=wrap;html=1;align=center;" vertex="1" parent="1">
          <mxGeometry x="320" y="510" width="100" height="40" as="geometry" />
        </mxCell>
        <mxCell id="WU8Xq_cLeQHDQ70CtlRt-30" style="edgeStyle=orthogonalEdgeStyle;rounded=0;orthogonalLoop=1;jettySize=auto;html=1;exitX=1;exitY=0.5;exitDx=0;exitDy=0;entryX=0;entryY=0.5;entryDx=0;entryDy=0;endArrow=none;endFill=0;" edge="1" parent="1" source="WU8Xq_cLeQHDQ70CtlRt-10" target="WU8Xq_cLeQHDQ70CtlRt-11">
          <mxGeometry relative="1" as="geometry" />
        </mxCell>
        <mxCell id="WU8Xq_cLeQHDQ70CtlRt-10" value="Provee" style="shape=rhombus;perimeter=rhombusPerimeter;whiteSpace=wrap;html=1;align=center;" vertex="1" parent="1">
          <mxGeometry x="400" y="310" width="120" height="60" as="geometry" />
        </mxCell>
        <mxCell id="WU8Xq_cLeQHDQ70CtlRt-31" style="edgeStyle=orthogonalEdgeStyle;rounded=0;orthogonalLoop=1;jettySize=auto;html=1;exitX=0.5;exitY=1;exitDx=0;exitDy=0;entryX=0.5;entryY=0;entryDx=0;entryDy=0;endArrow=none;endFill=0;" edge="1" parent="1" source="WU8Xq_cLeQHDQ70CtlRt-11" target="WU8Xq_cLeQHDQ70CtlRt-13">
          <mxGeometry relative="1" as="geometry" />
        </mxCell>
        <mxCell id="WU8Xq_cLeQHDQ70CtlRt-32" style="edgeStyle=orthogonalEdgeStyle;rounded=0;orthogonalLoop=1;jettySize=auto;html=1;exitX=0.5;exitY=1;exitDx=0;exitDy=0;entryX=0.5;entryY=0;entryDx=0;entryDy=0;endArrow=none;endFill=0;" edge="1" parent="1" source="WU8Xq_cLeQHDQ70CtlRt-11" target="WU8Xq_cLeQHDQ70CtlRt-12">
          <mxGeometry relative="1" as="geometry" />
        </mxCell>
        <mxCell id="WU8Xq_cLeQHDQ70CtlRt-11" value="Proveedor" style="whiteSpace=wrap;html=1;align=center;" vertex="1" parent="1">
          <mxGeometry x="610" y="320" width="100" height="40" as="geometry" />
        </mxCell>
        <mxCell id="WU8Xq_cLeQHDQ70CtlRt-12" value="Nombre" style="ellipse;whiteSpace=wrap;html=1;align=center;" vertex="1" parent="1">
          <mxGeometry x="670" y="400" width="100" height="40" as="geometry" />
        </mxCell>
        <mxCell id="WU8Xq_cLeQHDQ70CtlRt-13" value="ID" style="ellipse;whiteSpace=wrap;html=1;align=center;fontStyle=4;" vertex="1" parent="1">
          <mxGeometry x="550" y="400" width="100" height="40" as="geometry" />
        </mxCell>
        <mxCell id="WU8Xq_cLeQHDQ70CtlRt-14" value="&lt;b&gt;BASES DE DATOS / #63487 / UNIDAD 1&lt;/b&gt;" style="text;html=1;align=center;verticalAlign=middle;resizable=0;points=[];autosize=1;strokeColor=none;fillColor=none;" vertex="1" parent="1">
          <mxGeometry x="40" y="30" width="250" height="30" as="geometry" />
        </mxCell>
        <mxCell id="WU8Xq_cLeQHDQ70CtlRt-18" style="edgeStyle=orthogonalEdgeStyle;rounded=0;orthogonalLoop=1;jettySize=auto;html=1;" edge="1" parent="1" source="WU8Xq_cLeQHDQ70CtlRt-16" target="WU8Xq_cLeQHDQ70CtlRt-17">
          <mxGeometry relative="1" as="geometry">
            <mxPoint x="455" y="615" as="targetPoint" />
          </mxGeometry>
        </mxCell>
        <mxCell id="WU8Xq_cLeQHDQ70CtlRt-16" value="&lt;b&gt;M Productos&lt;/b&gt;" style="text;html=1;align=center;verticalAlign=middle;resizable=0;points=[];autosize=1;strokeColor=none;fillColor=none;" vertex="1" parent="1">
          <mxGeometry x="240" y="600" width="100" height="30" as="geometry" />
        </mxCell>
        <mxCell id="WU8Xq_cLeQHDQ70CtlRt-17" value="&lt;b&gt;M Componentes&lt;/b&gt;" style="text;html=1;align=center;verticalAlign=middle;resizable=0;points=[];autosize=1;strokeColor=none;fillColor=none;" vertex="1" parent="1">
          <mxGeometry x="480" y="600" width="120" height="30" as="geometry" />
        </mxCell>
      </root>
    </mxGraphModel>
  </diagram>
</mxfile>
